<?xml version="1.0" encoding="UTF-8"?>
<svg xmlns="http://www.w3.org/2000/svg" xmlns:xlink="http://www.w3.org/1999/xlink" version="1.1" viewBox="0 0 571.04 293.16">
  <!-- Generator: Adobe Illustrator 30.0.0, SVG Export Plug-In . SVG Version: 2.1.1 Build 123)  -->
  <defs>
    <style>
      .st0 {
        fill: none;
      }

      .st1 {
        fill: url(#linear-gradient2);
      }

      .st2 {
        fill: url(#linear-gradient1);
      }

      .st3 {
        fill: url(#linear-gradient);
      }

      .st4 {
        isolation: isolate;
      }

      .st5 {
        mix-blend-mode: soft-light;
      }

      .st6 {
        clip-path: url(#clippath);
      }
    </style>
    <clipPath id="clippath">
      <rect class="st0" x="-249.6" y="-46.39" width="832.07" height="339.54"/>
    </clipPath>
    <linearGradient id="linear-gradient" x1="285.49" y1="1.67" x2="285.49" y2="354.55" gradientUnits="userSpaceOnUse">
      <stop offset="0" stop-color="#fff"/>
      <stop offset="1" stop-color="#e5e5e5"/>
    </linearGradient>
    <linearGradient id="linear-gradient1" x1="285.49" y1="1.67" x2="285.49" y2="354.55" xlink:href="#linear-gradient"/>
    <linearGradient id="linear-gradient2" x1="285.49" y1="1.67" x2="285.49" y2="354.55" xlink:href="#linear-gradient"/>
  </defs>
  <g class="st4">
    <g id="Layer_1">
      <g class="st5">
        <g class="st6">
          <g>
            <path class="st3" d="M285.49,599L-7.04,306.47,285.49,13.95l292.52,292.53-292.52,292.52ZM72.78,306.47l212.71,212.71,212.71-212.71-212.71-212.71-212.71,212.71Z"/>
            <path class="st2" d="M285.49,705.92L-7.04,413.4,285.49,120.88l292.52,292.52-292.52,292.53ZM72.78,413.4l212.71,212.71,212.71-212.71-212.71-212.71-212.71,212.71Z"/>
            <path class="st1" d="M285.49,813.52L-7.04,520.99,285.49,228.47l292.52,292.52-292.52,292.53ZM72.78,520.99l212.71,212.71,212.71-212.71-212.71-212.71-212.71,212.71Z"/>
          </g>
        </g>
      </g>
    </g>
  </g>
</svg>